<svg width="18" height="18" viewBox="0 0 18 18" fill="none" xmlns="http://www.w3.org/2000/svg">
<path fill-rule="evenodd" clip-rule="evenodd" d="M8.66663 17.2C13.3795 17.2 17.2 13.3795 17.2 8.66663C17.2 3.9538 13.3795 0.133301 8.66663 0.133301C3.9538 0.133301 0.133301 3.9538 0.133301 8.66663C0.133301 13.3795 3.9538 17.2 8.66663 17.2ZM7.28755 5.77905C6.87099 5.36249 6.19561 5.36249 5.77905 5.77905C5.36249 6.19561 5.36249 6.87099 5.77905 7.28755L7.15814 8.66663L5.77905 10.0457C5.36249 10.4623 5.36249 11.1377 5.77905 11.5542C6.19561 11.9708 6.87099 11.9708 7.28755 11.5542L8.66663 10.1751L10.0457 11.5542C10.4623 11.9708 11.1377 11.9708 11.5542 11.5542C11.9708 11.1377 11.9708 10.4623 11.5542 10.0457L10.1751 8.66663L11.5542 7.28755C11.9708 6.87099 11.9708 6.19561 11.5542 5.77905C11.1377 5.36249 10.4623 5.36249 10.0457 5.77905L8.66663 7.15814L7.28755 5.77905Z" fill="#222222"/>
</svg>
