<svg xmlns="http://www.w3.org/2000/svg" xmlns:xlink="http://www.w3.org/1999/xlink" width="28" zoomAndPan="magnify" viewBox="0 0 375 374.999991" height="28" preserveAspectRatio="xMidYMid meet" version="1.0"><defs><clipPath id="b9bc75255a"><path d="M 2.347656 2.347656 L 372.847656 2.347656 L 372.847656 372.847656 L 2.347656 372.847656 Z M 2.347656 2.347656 " clip-rule="nonzero"/></clipPath></defs><g clip-path="url(#b9bc75255a)"><path fill="#1a1a1a" d="M 117.652344 247.800781 C 115.710938 250.472656 116.304688 254.207031 118.972656 256.148438 C 139.058594 270.738281 162.792969 278.453125 187.617188 278.453125 C 212.441406 278.453125 236.179688 270.738281 256.265625 256.148438 C 258.933594 254.207031 259.527344 250.472656 257.585938 247.800781 C 255.644531 245.128906 251.910156 244.539062 249.238281 246.480469 C 231.210938 259.578125 209.902344 266.5 187.617188 266.5 C 165.335938 266.5 144.027344 259.578125 126 246.480469 C 124.9375 245.707031 123.707031 245.335938 122.492188 245.335938 C 120.644531 245.335938 118.820312 246.191406 117.652344 247.800781 Z M 249.171875 118.894531 C 238.28125 118.894531 229.449219 127.722656 229.449219 138.617188 C 229.449219 149.507812 238.28125 158.335938 249.171875 158.335938 C 260.0625 158.335938 268.890625 149.507812 268.890625 138.617188 C 268.890625 127.722656 260.0625 118.894531 249.171875 118.894531 Z M 118.894531 118.894531 C 108.003906 118.894531 99.175781 127.722656 99.175781 138.617188 C 99.175781 149.507812 108.003906 158.335938 118.894531 158.335938 C 129.785156 158.335938 138.617188 149.507812 138.617188 138.617188 C 138.617188 127.722656 129.785156 118.894531 118.894531 118.894531 Z M 187.617188 14.316406 C 141.328125 14.316406 97.808594 32.34375 65.078125 65.078125 C 32.34375 97.808594 14.316406 141.328125 14.316406 187.617188 C 14.316406 233.910156 32.34375 277.429688 65.078125 310.160156 C 97.808594 342.894531 141.328125 360.921875 187.617188 360.921875 C 233.910156 360.921875 277.429688 342.894531 310.160156 310.160156 C 342.894531 277.429688 360.921875 233.910156 360.921875 187.617188 C 360.921875 141.328125 342.894531 97.808594 310.160156 65.078125 C 277.429688 32.34375 233.910156 14.316406 187.617188 14.316406 Z M 187.617188 372.871094 C 138.136719 372.871094 91.613281 353.605469 56.625 318.613281 C 21.632812 283.625 2.367188 237.101562 2.367188 187.617188 C 2.367188 138.136719 21.632812 91.613281 56.625 56.625 C 91.613281 21.632812 138.136719 2.367188 187.617188 2.367188 C 237.101562 2.367188 283.625 21.632812 318.613281 56.625 C 353.605469 91.613281 372.871094 138.136719 372.871094 187.617188 C 372.871094 237.101562 353.605469 283.625 318.613281 318.613281 C 283.625 353.605469 237.101562 372.871094 187.617188 372.871094 " fill-opacity="1" fill-rule="nonzero"/></g></svg>