<svg xmlns="http://www.w3.org/2000/svg" xmlns:xlink="http://www.w3.org/1999/xlink" width="28" zoomAndPan="magnify" viewBox="0 0 375 374.999991" height="28" preserveAspectRatio="xMidYMid meet" version="1.0"><defs><clipPath id="d50435956d"><path d="M 3.613281 3.613281 L 371.113281 3.613281 L 371.113281 371.113281 L 3.613281 371.113281 Z M 3.613281 3.613281 " clip-rule="nonzero"/></clipPath></defs><g clip-path="url(#d50435956d)"><path fill="#1a1a1a" d="M 257.878906 271.507812 C 257.878906 268.238281 255.222656 265.582031 251.949219 265.582031 L 122.738281 265.582031 C 119.464844 265.582031 116.808594 268.238281 116.808594 271.507812 C 116.808594 274.78125 119.464844 277.4375 122.738281 277.4375 L 251.949219 277.4375 C 255.222656 277.4375 257.878906 274.78125 257.878906 271.507812 Z M 248.394531 119.179688 C 237.589844 119.179688 228.832031 127.9375 228.832031 138.742188 C 228.832031 149.542969 237.589844 158.300781 248.394531 158.300781 C 259.195312 158.300781 267.953125 149.542969 267.953125 138.742188 C 267.953125 127.9375 259.195312 119.179688 248.394531 119.179688 Z M 119.179688 119.179688 C 108.378906 119.179688 99.621094 127.9375 99.621094 138.742188 C 99.621094 149.542969 108.378906 158.300781 119.179688 158.300781 C 129.984375 158.300781 138.742188 149.542969 138.742188 138.742188 C 138.742188 127.9375 129.984375 119.179688 119.179688 119.179688 Z M 187.34375 15.453125 C 141.429688 15.453125 98.265625 33.335938 65.800781 65.800781 C 33.335938 98.265625 15.453125 141.429688 15.453125 187.34375 C 15.453125 233.257812 33.335938 276.421875 65.800781 308.886719 C 98.265625 341.351562 141.429688 359.230469 187.34375 359.230469 C 233.257812 359.230469 276.421875 341.351562 308.886719 308.886719 C 341.351562 276.421875 359.230469 233.257812 359.230469 187.34375 C 359.230469 141.429688 341.351562 98.265625 308.886719 65.800781 C 276.421875 33.335938 233.257812 15.453125 187.34375 15.453125 Z M 187.34375 371.085938 C 138.265625 371.085938 92.121094 351.972656 57.417969 317.269531 C 22.710938 282.566406 3.601562 236.421875 3.601562 187.34375 C 3.601562 138.265625 22.710938 92.121094 57.417969 57.417969 C 92.121094 22.714844 138.265625 3.601562 187.34375 3.601562 C 236.421875 3.601562 282.566406 22.714844 317.269531 57.417969 C 351.976562 92.121094 371.085938 138.265625 371.085938 187.34375 C 371.085938 236.421875 351.976562 282.566406 317.269531 317.269531 C 282.566406 351.972656 236.421875 371.085938 187.34375 371.085938 " fill-opacity="1" fill-rule="nonzero"/></g></svg>