<svg xmlns="http://www.w3.org/2000/svg" xmlns:xlink="http://www.w3.org/1999/xlink" width="28" zoomAndPan="magnify" viewBox="0 0 375 374.999991" height="28" preserveAspectRatio="xMidYMid meet" version="1.0"><defs><clipPath id="9bb9789749"><path d="M 4.15625 4.15625 L 370.90625 4.15625 L 370.90625 370.90625 L 4.15625 370.90625 Z M 4.15625 4.15625 " clip-rule="nonzero"/></clipPath></defs><g clip-path="url(#9bb9789749)"><path fill="#1a1a1a" d="M 256.789062 275.003906 C 258.707031 272.359375 258.121094 268.660156 255.476562 266.738281 C 235.597656 252.296875 212.101562 244.664062 187.53125 244.664062 C 162.957031 244.664062 139.460938 252.296875 119.578125 266.738281 C 116.9375 268.660156 116.351562 272.359375 118.273438 275.003906 C 120.191406 277.644531 123.890625 278.234375 126.535156 276.308594 C 144.378906 263.34375 165.472656 256.492188 187.53125 256.492188 C 209.585938 256.492188 230.679688 263.34375 248.523438 276.308594 C 249.574219 277.074219 250.792969 277.441406 251.996094 277.441406 C 253.824219 277.441406 255.628906 276.59375 256.789062 275.003906 Z M 248.457031 119.503906 C 237.675781 119.503906 228.9375 128.242188 228.9375 139.023438 C 228.9375 149.804688 237.675781 158.542969 248.457031 158.542969 C 259.238281 158.542969 267.976562 149.804688 267.976562 139.023438 C 267.976562 128.242188 259.238281 119.503906 248.457031 119.503906 Z M 119.503906 119.503906 C 108.722656 119.503906 99.984375 128.242188 99.984375 139.023438 C 99.984375 149.804688 108.722656 158.542969 119.503906 158.542969 C 130.285156 158.542969 139.023438 149.804688 139.023438 139.023438 C 139.023438 128.242188 130.285156 119.503906 119.503906 119.503906 Z M 187.53125 15.984375 C 141.707031 15.984375 98.632812 33.828125 66.230469 66.230469 C 33.828125 98.632812 15.984375 141.707031 15.984375 187.53125 C 15.984375 233.351562 33.828125 276.429688 66.230469 308.832031 C 98.632812 341.230469 141.707031 359.074219 187.53125 359.074219 C 233.351562 359.074219 276.429688 341.230469 308.832031 308.832031 C 341.230469 276.429688 359.074219 233.351562 359.074219 187.53125 C 359.074219 141.707031 341.230469 98.632812 308.832031 66.230469 C 276.429688 33.828125 233.351562 15.984375 187.53125 15.984375 Z M 187.53125 370.90625 C 138.546875 370.90625 92.5 351.828125 57.863281 317.195312 C 23.230469 282.5625 4.15625 236.511719 4.15625 187.53125 C 4.15625 138.546875 23.230469 92.5 57.863281 57.863281 C 92.5 23.230469 138.546875 4.15625 187.53125 4.15625 C 236.511719 4.15625 282.5625 23.230469 317.195312 57.863281 C 351.828125 92.5 370.90625 138.546875 370.90625 187.53125 C 370.90625 236.511719 351.828125 282.5625 317.195312 317.195312 C 282.5625 351.828125 236.511719 370.90625 187.53125 370.90625 " fill-opacity="1" fill-rule="nonzero"/></g></svg>